<svg width="1440" height="1490" viewBox="0 0 1440 1490" fill="none" xmlns="http://www.w3.org/2000/svg">
<g filter="url(#filter0_d_4336_10)">
<circle cx="145" cy="418" r="46" fill="url(#paint0_linear_4336_10)"/>
</g>
<g filter="url(#filter1_d_4336_10)">
<circle cx="1298" cy="418" r="46" fill="url(#paint1_linear_4336_10)"/>
</g>
<g filter="url(#filter2_ddddddf_4336_10)">
<path d="M720 90.25C1117.53 90.25 1439.75 380.505 1439.75 738.5C1439.75 1096.49 1117.53 1386.75 720 1386.75C322.468 1386.75 0.25 1096.49 0.25 738.5C0.25 380.505 322.468 90.25 720 90.25Z" stroke="#B9FFEA" stroke-width="0.5"/>
</g>
<g filter="url(#filter3_ddddddf_4336_10)">
<path d="M720.5 145.25C1101.19 145.25 1409.75 423.193 1409.75 766C1409.75 1108.81 1101.19 1386.75 720.5 1386.75C339.812 1386.75 31.25 1108.81 31.25 766C31.25 423.193 339.812 145.25 720.5 145.25Z" stroke="#B9FFEA" stroke-width="0.5"/>
</g>
<path d="M720.5 61.5C1132 61.5 1465.5 361.965 1465.5 732.5C1465.5 1103.04 1132 1403.5 720.5 1403.5C308.997 1403.5 -24.5 1103.04 -24.5 732.5C-24.5 361.965 308.997 61.5 720.5 61.5Z" stroke="#2EDBA6" stroke-opacity="0.4"/>
<path d="M720 32.5C1142.27 32.5 1484.5 340.8 1484.5 721C1484.5 1101.2 1142.27 1409.5 720 1409.5C297.728 1409.5 -44.5 1101.2 -44.5 721C-44.5 340.8 297.728 32.5 720 32.5Z" stroke="#2EDBA6" stroke-opacity="0.15"/>
<path d="M720 9.5C1152.77 9.5 1503.5 325.411 1503.5 715C1503.5 1104.59 1152.77 1420.5 720 1420.5C287.234 1420.5 -63.5 1104.59 -63.5 715C-63.5 325.411 287.234 9.5 720 9.5Z" stroke="#2EDBA6" stroke-opacity="0.04"/>
<g filter="url(#filter4_f_4336_10)">
<path d="M720.5 151C1109.06 151 1423 430.029 1423 773C1423 1115.97 1109.06 1395 720.5 1395C331.935 1395 18 1115.97 18 773C18 430.029 331.935 151 720.5 151Z" stroke="#00BC82" stroke-opacity="0.7" stroke-width="10"/>
</g>
<g filter="url(#filter5_d_4336_10)">
<circle cx="720" cy="149" r="46" fill="url(#paint2_linear_4336_10)"/>
</g>
<path d="M50.0721 524V506.545H60.1971V507.977H51.6658V514.548H59.6602V515.98H51.6658V522.568H60.3675V524H50.0721ZM67.663 524.298C66.8732 524.298 66.1516 524.145 65.4982 523.838C64.8448 523.526 64.3249 523.077 63.9386 522.491C63.5522 521.901 63.359 521.185 63.359 520.344C63.359 519.696 63.4812 519.151 63.7255 518.707C63.9698 518.264 64.3164 517.901 64.7653 517.616C65.2141 517.332 65.7454 517.108 66.359 516.943C66.9727 516.778 67.6488 516.651 68.3874 516.56C69.1204 516.469 69.7397 516.389 70.2454 516.321C70.7567 516.253 71.146 516.145 71.413 515.997C71.68 515.849 71.8136 515.611 71.8136 515.281V514.974C71.8136 514.082 71.5465 513.381 71.0124 512.869C70.484 512.352 69.7227 512.094 68.7283 512.094C67.7852 512.094 67.0153 512.301 66.4187 512.716C65.8278 513.131 65.413 513.619 65.1744 514.182L63.734 513.662C64.0295 512.946 64.4386 512.375 64.9613 511.949C65.484 511.517 66.0692 511.207 66.717 511.02C67.3647 510.827 68.021 510.73 68.6857 510.73C69.1857 510.73 69.7056 510.795 70.2454 510.926C70.7908 511.057 71.2965 511.284 71.7624 511.608C72.2283 511.926 72.6062 512.372 72.896 512.946C73.1857 513.514 73.3306 514.236 73.3306 515.111V524H71.8136V521.929H71.7198C71.538 522.315 71.2681 522.69 70.9102 523.054C70.5522 523.418 70.1033 523.716 69.5636 523.949C69.0238 524.182 68.3903 524.298 67.663 524.298ZM67.8675 522.909C68.6744 522.909 69.3732 522.73 69.9641 522.372C70.555 522.014 71.0096 521.54 71.3278 520.949C71.6516 520.352 71.8136 519.696 71.8136 518.98V517.088C71.6999 517.196 71.5096 517.293 71.2425 517.378C70.9812 517.463 70.6772 517.54 70.3306 517.608C69.9897 517.67 69.6488 517.724 69.3079 517.77C68.967 517.815 68.6602 517.855 68.3874 517.889C67.6488 517.98 67.0181 518.122 66.4954 518.315C65.9727 518.509 65.5721 518.776 65.2937 519.116C65.0153 519.452 64.8761 519.884 64.8761 520.412C64.8761 521.207 65.1602 521.824 65.7283 522.261C66.2965 522.693 67.0096 522.909 67.8675 522.909ZM77.3661 524V510.909H78.8406V512.92H78.9513C79.2127 512.261 79.6673 511.73 80.315 511.327C80.9684 510.918 81.707 510.713 82.5309 510.713C82.6559 510.713 82.7951 510.716 82.9485 510.722C83.1019 510.727 83.2298 510.733 83.332 510.739V512.281C83.2638 512.27 83.1445 512.253 82.9741 512.23C82.8036 512.207 82.619 512.196 82.4201 512.196C81.7383 512.196 81.1303 512.341 80.5962 512.631C80.0678 512.915 79.6502 513.31 79.3434 513.815C79.0366 514.321 78.8832 514.898 78.8832 515.545V524H77.3661ZM87.4379 506.545V524H85.9208V506.545H87.4379ZM92.5089 528.909C92.2077 528.909 91.9265 528.881 91.6651 528.824C91.4038 528.767 91.1964 528.705 91.043 528.636L91.4521 527.298C91.9691 527.457 92.4293 527.514 92.8327 527.469C93.2362 527.429 93.5941 527.247 93.9066 526.923C94.2191 526.605 94.4975 526.116 94.7418 525.457L95.2191 524.128L90.4038 510.909H92.0487L95.935 521.997H96.0543L99.9407 510.909H101.586L96.0458 526.071C95.8129 526.702 95.5259 527.227 95.185 527.648C94.8441 528.074 94.4492 528.389 94.0004 528.594C93.5572 528.804 93.06 528.909 92.5089 528.909ZM111.619 515.801V517.233H104.358V515.801H111.619ZM124.224 513.781L122.835 514.173C122.699 513.781 122.505 513.426 122.255 513.108C122.005 512.79 121.679 512.537 121.275 512.349C120.877 512.162 120.383 512.068 119.792 512.068C118.906 512.068 118.179 512.278 117.61 512.699C117.042 513.119 116.758 513.662 116.758 514.327C116.758 514.889 116.951 515.347 117.338 515.699C117.73 516.045 118.332 516.321 119.145 516.526L121.122 517.011C122.218 517.278 123.039 517.702 123.585 518.281C124.136 518.861 124.412 519.588 124.412 520.463C124.412 521.202 124.207 521.858 123.798 522.432C123.389 523.006 122.818 523.457 122.085 523.787C121.358 524.111 120.514 524.273 119.554 524.273C118.275 524.273 117.221 523.986 116.392 523.412C115.562 522.832 115.031 521.997 114.798 520.906L116.255 520.548C116.443 521.327 116.809 521.915 117.355 522.312C117.906 522.71 118.63 522.909 119.528 522.909C120.534 522.909 121.338 522.685 121.94 522.236C122.542 521.781 122.843 521.213 122.843 520.531C122.843 520.003 122.667 519.56 122.315 519.202C121.963 518.838 121.429 518.571 120.713 518.401L118.574 517.889C117.437 517.616 116.596 517.185 116.051 516.594C115.505 516.003 115.233 515.27 115.233 514.395C115.233 513.673 115.429 513.04 115.821 512.494C116.213 511.943 116.752 511.511 117.44 511.199C118.127 510.886 118.912 510.73 119.792 510.73C120.991 510.73 121.949 511.003 122.664 511.548C123.386 512.088 123.906 512.832 124.224 513.781ZM132.89 510.909V512.23H126.642V510.909H132.89ZM128.594 507.773H130.12V520.582C130.12 521.128 130.213 521.557 130.401 521.869C130.588 522.176 130.833 522.395 131.134 522.526C131.435 522.651 131.756 522.713 132.097 522.713C132.296 522.713 132.466 522.702 132.608 522.679C132.75 522.651 132.875 522.622 132.983 522.594L133.307 523.966C133.159 524.023 132.978 524.074 132.762 524.119C132.546 524.17 132.279 524.196 131.961 524.196C131.404 524.196 130.867 524.074 130.35 523.83C129.838 523.585 129.418 523.222 129.088 522.739C128.759 522.256 128.594 521.656 128.594 520.94V507.773ZM139.991 524.298C139.201 524.298 138.48 524.145 137.826 523.838C137.173 523.526 136.653 523.077 136.267 522.491C135.88 521.901 135.687 521.185 135.687 520.344C135.687 519.696 135.809 519.151 136.054 518.707C136.298 518.264 136.645 517.901 137.093 517.616C137.542 517.332 138.074 517.108 138.687 516.943C139.301 516.778 139.977 516.651 140.716 516.56C141.449 516.469 142.068 516.389 142.574 516.321C143.085 516.253 143.474 516.145 143.741 515.997C144.008 515.849 144.142 515.611 144.142 515.281V514.974C144.142 514.082 143.875 513.381 143.341 512.869C142.812 512.352 142.051 512.094 141.056 512.094C140.113 512.094 139.343 512.301 138.747 512.716C138.156 513.131 137.741 513.619 137.502 514.182L136.062 513.662C136.358 512.946 136.767 512.375 137.289 511.949C137.812 511.517 138.397 511.207 139.045 511.02C139.693 510.827 140.349 510.73 141.014 510.73C141.514 510.73 142.034 510.795 142.574 510.926C143.119 511.057 143.625 511.284 144.091 511.608C144.556 511.926 144.934 512.372 145.224 512.946C145.514 513.514 145.659 514.236 145.659 515.111V524H144.142V521.929H144.048C143.866 522.315 143.596 522.69 143.238 523.054C142.88 523.418 142.431 523.716 141.892 523.949C141.352 524.182 140.718 524.298 139.991 524.298ZM140.196 522.909C141.002 522.909 141.701 522.73 142.292 522.372C142.883 522.014 143.338 521.54 143.656 520.949C143.98 520.352 144.142 519.696 144.142 518.98V517.088C144.028 517.196 143.838 517.293 143.571 517.378C143.309 517.463 143.005 517.54 142.659 517.608C142.318 517.67 141.977 517.724 141.636 517.77C141.295 517.815 140.988 517.855 140.716 517.889C139.977 517.98 139.346 518.122 138.824 518.315C138.301 518.509 137.9 518.776 137.622 519.116C137.343 519.452 137.204 519.884 137.204 520.412C137.204 521.207 137.488 521.824 138.056 522.261C138.625 522.693 139.338 522.909 140.196 522.909ZM154.689 529.182C153.797 529.182 153.015 529.065 152.345 528.832C151.674 528.605 151.109 528.293 150.649 527.895C150.189 527.497 149.831 527.051 149.575 526.557L150.819 525.739C151.007 526.068 151.257 526.392 151.569 526.71C151.887 527.028 152.299 527.293 152.805 527.503C153.316 527.713 153.944 527.818 154.689 527.818C155.848 527.818 156.782 527.528 157.493 526.949C158.208 526.369 158.566 525.469 158.566 524.247V521.298H158.43C158.254 521.696 158.001 522.094 157.672 522.491C157.342 522.884 156.91 523.21 156.376 523.472C155.848 523.733 155.191 523.864 154.407 523.864C153.362 523.864 152.433 523.605 151.62 523.088C150.814 522.571 150.177 521.832 149.711 520.872C149.251 519.906 149.021 518.756 149.021 517.42C149.021 516.097 149.245 514.932 149.694 513.926C150.149 512.92 150.782 512.136 151.595 511.574C152.407 511.011 153.353 510.73 154.433 510.73C155.234 510.73 155.899 510.872 156.427 511.156C156.956 511.435 157.379 511.781 157.697 512.196C158.021 512.611 158.274 513.014 158.456 513.406H158.609V510.909H160.092V524.341C160.092 525.449 159.856 526.361 159.385 527.077C158.913 527.793 158.271 528.321 157.458 528.662C156.646 529.009 155.723 529.182 154.689 529.182ZM154.586 522.474C155.427 522.474 156.146 522.273 156.743 521.869C157.339 521.46 157.797 520.875 158.115 520.114C158.433 519.352 158.592 518.446 158.592 517.395C158.592 516.372 158.436 515.466 158.123 514.676C157.811 513.881 157.356 513.256 156.76 512.801C156.169 512.341 155.444 512.111 154.586 512.111C153.711 512.111 152.973 512.347 152.37 512.818C151.768 513.29 151.314 513.926 151.007 514.727C150.7 515.523 150.547 516.412 150.547 517.395C150.547 518.395 150.703 519.278 151.015 520.045C151.328 520.807 151.785 521.403 152.387 521.835C152.99 522.261 153.723 522.474 154.586 522.474ZM169.401 524.273C168.179 524.273 167.123 523.989 166.23 523.42C165.338 522.847 164.648 522.054 164.159 521.043C163.676 520.026 163.435 518.855 163.435 517.531C163.435 516.213 163.676 515.043 164.159 514.02C164.648 512.991 165.321 512.187 166.179 511.608C167.043 511.023 168.04 510.73 169.171 510.73C169.881 510.73 170.566 510.861 171.225 511.122C171.884 511.378 172.475 511.773 172.998 512.307C173.526 512.835 173.944 513.503 174.25 514.31C174.557 515.111 174.711 516.06 174.711 517.156V517.906H164.483V516.568H173.159C173.159 515.727 172.989 514.972 172.648 514.301C172.313 513.625 171.844 513.091 171.242 512.699C170.645 512.307 169.955 512.111 169.171 512.111C168.341 512.111 167.611 512.332 166.98 512.776C166.35 513.219 165.855 513.804 165.498 514.531C165.145 515.259 164.966 516.054 164.961 516.918V517.719C164.961 518.759 165.14 519.668 165.498 520.446C165.861 521.219 166.375 521.818 167.04 522.244C167.705 522.67 168.492 522.884 169.401 522.884C170.02 522.884 170.563 522.787 171.029 522.594C171.5 522.401 171.895 522.142 172.213 521.818C172.537 521.489 172.782 521.128 172.946 520.736L174.387 521.205C174.188 521.756 173.861 522.264 173.407 522.73C172.958 523.196 172.395 523.571 171.719 523.855C171.049 524.134 170.276 524.273 169.401 524.273ZM189.917 524.273C188.747 524.273 187.727 523.98 186.858 523.395C185.994 522.81 185.324 522.009 184.846 520.991C184.369 519.974 184.13 518.815 184.13 517.514C184.13 516.202 184.372 515.034 184.855 514.011C185.343 512.989 186.02 512.187 186.883 511.608C187.747 511.023 188.75 510.73 189.892 510.73C190.767 510.73 191.559 510.901 192.27 511.241C192.98 511.577 193.565 512.051 194.025 512.665C194.491 513.273 194.784 513.983 194.903 514.795H193.369C193.21 514.057 192.826 513.426 192.218 512.903C191.616 512.375 190.849 512.111 189.917 512.111C189.082 512.111 188.343 512.338 187.701 512.793C187.059 513.241 186.556 513.869 186.193 514.676C185.835 515.477 185.656 516.406 185.656 517.463C185.656 518.526 185.832 519.466 186.184 520.284C186.537 521.097 187.031 521.733 187.667 522.193C188.309 522.653 189.059 522.884 189.917 522.884C190.497 522.884 191.025 522.776 191.502 522.56C191.985 522.338 192.389 522.026 192.713 521.622C193.042 521.219 193.264 520.739 193.377 520.182H194.912C194.798 520.972 194.517 521.676 194.068 522.295C193.625 522.909 193.048 523.392 192.338 523.744C191.633 524.097 190.826 524.273 189.917 524.273ZM198.163 524V510.909H199.637V512.92H199.748C200.01 512.261 200.464 511.73 201.112 511.327C201.765 510.918 202.504 510.713 203.328 510.713C203.453 510.713 203.592 510.716 203.745 510.722C203.899 510.727 204.027 510.733 204.129 510.739V512.281C204.061 512.27 203.941 512.253 203.771 512.23C203.6 512.207 203.416 512.196 203.217 512.196C202.535 512.196 201.927 512.341 201.393 512.631C200.865 512.915 200.447 513.31 200.14 513.815C199.833 514.321 199.68 514.898 199.68 515.545V524H198.163ZM208.173 528.909C207.872 528.909 207.591 528.881 207.329 528.824C207.068 528.767 206.86 528.705 206.707 528.636L207.116 527.298C207.633 527.457 208.093 527.514 208.497 527.469C208.9 527.429 209.258 527.247 209.571 526.923C209.883 526.605 210.162 526.116 210.406 525.457L210.883 524.128L206.068 510.909H207.713L211.599 521.997H211.718L215.605 510.909H217.25L211.71 526.071C211.477 526.702 211.19 527.227 210.849 527.648C210.508 528.074 210.113 528.389 209.664 528.594C209.221 528.804 208.724 528.909 208.173 528.909ZM220.218 528.909V510.909H221.692V513.406H221.871C222.053 513.014 222.303 512.614 222.621 512.205C222.939 511.79 223.36 511.44 223.882 511.156C224.411 510.872 225.076 510.73 225.877 510.73C226.956 510.73 227.9 511.014 228.706 511.582C229.519 512.145 230.15 512.935 230.598 513.952C231.053 514.963 231.28 516.142 231.28 517.489C231.28 518.841 231.053 520.026 230.598 521.043C230.15 522.06 229.519 522.852 228.706 523.42C227.9 523.989 226.962 524.273 225.894 524.273C225.104 524.273 224.442 524.131 223.908 523.847C223.38 523.562 222.951 523.213 222.621 522.798C222.297 522.378 222.047 521.969 221.871 521.571H221.735V528.909H220.218ZM221.718 517.463C221.718 518.52 221.874 519.457 222.186 520.276C222.505 521.088 222.959 521.727 223.55 522.193C224.147 522.653 224.868 522.884 225.715 522.884C226.584 522.884 227.317 522.645 227.914 522.168C228.516 521.685 228.973 521.034 229.286 520.216C229.604 519.398 229.763 518.48 229.763 517.463C229.763 516.457 229.607 515.551 229.294 514.744C228.988 513.937 228.533 513.298 227.931 512.827C227.328 512.349 226.59 512.111 225.715 512.111C224.863 512.111 224.138 512.341 223.542 512.801C222.945 513.256 222.49 513.886 222.178 514.693C221.871 515.494 221.718 516.418 221.718 517.463ZM239.765 510.909V512.23H233.517V510.909H239.765ZM235.469 507.773H236.995V520.582C236.995 521.128 237.088 521.557 237.276 521.869C237.463 522.176 237.708 522.395 238.009 522.526C238.31 522.651 238.631 522.713 238.972 522.713C239.171 522.713 239.341 522.702 239.483 522.679C239.625 522.651 239.75 522.622 239.858 522.594L240.182 523.966C240.034 524.023 239.853 524.074 239.637 524.119C239.421 524.17 239.154 524.196 238.836 524.196C238.279 524.196 237.742 524.074 237.225 523.83C236.713 523.585 236.293 523.222 235.963 522.739C235.634 522.256 235.469 521.656 235.469 520.94V507.773ZM248.157 524.273C247.027 524.273 246.027 523.986 245.157 523.412C244.294 522.838 243.618 522.045 243.129 521.034C242.64 520.017 242.396 518.844 242.396 517.514C242.396 516.173 242.64 514.994 243.129 513.977C243.618 512.955 244.294 512.159 245.157 511.591C246.027 511.017 247.027 510.73 248.157 510.73C249.288 510.73 250.285 511.017 251.149 511.591C252.012 512.165 252.689 512.96 253.177 513.977C253.672 514.994 253.919 516.173 253.919 517.514C253.919 518.844 253.674 520.017 253.186 521.034C252.697 522.045 252.018 522.838 251.149 523.412C250.285 523.986 249.288 524.273 248.157 524.273ZM248.157 522.884C249.066 522.884 249.836 522.639 250.467 522.151C251.098 521.662 251.575 521.011 251.899 520.199C252.228 519.386 252.393 518.491 252.393 517.514C252.393 516.537 252.228 515.639 251.899 514.821C251.575 514.003 251.098 513.347 250.467 512.852C249.836 512.358 249.066 512.111 248.157 512.111C247.254 512.111 246.484 512.358 245.848 512.852C245.217 513.347 244.737 514.003 244.407 514.821C244.083 515.639 243.922 516.537 243.922 517.514C243.922 518.491 244.083 519.386 244.407 520.199C244.737 521.011 245.217 521.662 245.848 522.151C246.478 522.639 247.248 522.884 248.157 522.884ZM108.374 557.909V539.909H109.848V542.406H110.027C110.209 542.014 110.459 541.614 110.777 541.205C111.096 540.79 111.516 540.44 112.039 540.156C112.567 539.872 113.232 539.73 114.033 539.73C115.113 539.73 116.056 540.014 116.863 540.582C117.675 541.145 118.306 541.935 118.755 542.952C119.209 543.963 119.436 545.142 119.436 546.489C119.436 547.841 119.209 549.026 118.755 550.043C118.306 551.06 117.675 551.852 116.863 552.42C116.056 552.989 115.118 553.273 114.05 553.273C113.26 553.273 112.598 553.131 112.064 552.847C111.536 552.562 111.107 552.213 110.777 551.798C110.453 551.378 110.203 550.969 110.027 550.571H109.891V557.909H108.374ZM109.874 546.463C109.874 547.52 110.03 548.457 110.343 549.276C110.661 550.088 111.115 550.727 111.706 551.193C112.303 551.653 113.025 551.884 113.871 551.884C114.74 551.884 115.473 551.645 116.07 551.168C116.672 550.685 117.13 550.034 117.442 549.216C117.76 548.398 117.919 547.48 117.919 546.463C117.919 545.457 117.763 544.551 117.451 543.744C117.144 542.937 116.689 542.298 116.087 541.827C115.485 541.349 114.746 541.111 113.871 541.111C113.019 541.111 112.294 541.341 111.698 541.801C111.101 542.256 110.647 542.886 110.334 543.693C110.027 544.494 109.874 545.418 109.874 546.463ZM122.765 553V539.909H124.239V541.92H124.35C124.611 541.261 125.066 540.73 125.713 540.327C126.367 539.918 127.105 539.713 127.929 539.713C128.054 539.713 128.194 539.716 128.347 539.722C128.5 539.727 128.628 539.733 128.73 539.739V541.281C128.662 541.27 128.543 541.253 128.373 541.23C128.202 541.207 128.017 541.196 127.819 541.196C127.137 541.196 126.529 541.341 125.995 541.631C125.466 541.915 125.049 542.31 124.742 542.815C124.435 543.321 124.282 543.898 124.282 544.545V553H122.765ZM136.009 553.273C134.878 553.273 133.878 552.986 133.009 552.412C132.145 551.838 131.469 551.045 130.98 550.034C130.492 549.017 130.248 547.844 130.248 546.514C130.248 545.173 130.492 543.994 130.98 542.977C131.469 541.955 132.145 541.159 133.009 540.591C133.878 540.017 134.878 539.73 136.009 539.73C137.14 539.73 138.137 540.017 139 540.591C139.864 541.165 140.54 541.96 141.029 542.977C141.523 543.994 141.77 545.173 141.77 546.514C141.77 547.844 141.526 549.017 141.037 550.034C140.549 551.045 139.87 551.838 139 552.412C138.137 552.986 137.14 553.273 136.009 553.273ZM136.009 551.884C136.918 551.884 137.688 551.639 138.319 551.151C138.949 550.662 139.426 550.011 139.75 549.199C140.08 548.386 140.245 547.491 140.245 546.514C140.245 545.537 140.08 544.639 139.75 543.821C139.426 543.003 138.949 542.347 138.319 541.852C137.688 541.358 136.918 541.111 136.009 541.111C135.105 541.111 134.336 541.358 133.699 541.852C133.069 542.347 132.588 543.003 132.259 543.821C131.935 544.639 131.773 545.537 131.773 546.514C131.773 547.491 131.935 548.386 132.259 549.199C132.588 550.011 133.069 550.662 133.699 551.151C134.33 551.639 135.1 551.884 136.009 551.884ZM145.118 539.909H146.643V554.27C146.643 555.014 146.504 555.656 146.225 556.196C145.953 556.741 145.555 557.162 145.032 557.457C144.51 557.759 143.879 557.909 143.14 557.909C143.083 557.909 143.027 557.909 142.97 557.909C142.913 557.909 142.85 557.906 142.782 557.901L142.799 556.477C142.856 556.477 142.91 556.477 142.961 556.477C143.012 556.477 143.066 556.477 143.123 556.477C143.748 556.477 144.237 556.284 144.589 555.898C144.941 555.511 145.118 554.969 145.118 554.27V539.909ZM145.868 537.659C145.561 537.659 145.294 537.554 145.066 537.344C144.845 537.128 144.734 536.869 144.734 536.568C144.734 536.267 144.845 536.011 145.066 535.801C145.294 535.585 145.561 535.477 145.868 535.477C146.18 535.477 146.447 535.585 146.669 535.801C146.896 536.011 147.01 536.267 147.01 536.568C147.01 536.869 146.896 537.128 146.669 537.344C146.447 537.554 146.18 537.659 145.868 537.659ZM155.948 553.273C154.726 553.273 153.669 552.989 152.777 552.42C151.885 551.847 151.195 551.054 150.706 550.043C150.223 549.026 149.982 547.855 149.982 546.531C149.982 545.213 150.223 544.043 150.706 543.02C151.195 541.991 151.868 541.187 152.726 540.608C153.59 540.023 154.587 539.73 155.718 539.73C156.428 539.73 157.113 539.861 157.772 540.122C158.431 540.378 159.022 540.773 159.544 541.307C160.073 541.835 160.49 542.503 160.797 543.31C161.104 544.111 161.257 545.06 161.257 546.156V546.906H151.03V545.568H159.706C159.706 544.727 159.536 543.972 159.195 543.301C158.86 542.625 158.391 542.091 157.789 541.699C157.192 541.307 156.502 541.111 155.718 541.111C154.888 541.111 154.158 541.332 153.527 541.776C152.897 542.219 152.402 542.804 152.044 543.531C151.692 544.259 151.513 545.054 151.507 545.918V546.719C151.507 547.759 151.686 548.668 152.044 549.446C152.408 550.219 152.922 550.818 153.587 551.244C154.252 551.67 155.039 551.884 155.948 551.884C156.567 551.884 157.11 551.787 157.576 551.594C158.047 551.401 158.442 551.142 158.76 550.818C159.084 550.489 159.328 550.128 159.493 549.736L160.934 550.205C160.735 550.756 160.408 551.264 159.953 551.73C159.505 552.196 158.942 552.571 158.266 552.855C157.596 553.134 156.823 553.273 155.948 553.273ZM169.714 553.273C168.544 553.273 167.524 552.98 166.654 552.395C165.791 551.81 165.12 551.009 164.643 549.991C164.166 548.974 163.927 547.815 163.927 546.514C163.927 545.202 164.169 544.034 164.652 543.011C165.14 541.989 165.816 541.187 166.68 540.608C167.544 540.023 168.547 539.73 169.689 539.73C170.564 539.73 171.356 539.901 172.066 540.241C172.777 540.577 173.362 541.051 173.822 541.665C174.288 542.273 174.581 542.983 174.7 543.795H173.166C173.007 543.057 172.623 542.426 172.015 541.903C171.413 541.375 170.646 541.111 169.714 541.111C168.879 541.111 168.14 541.338 167.498 541.793C166.856 542.241 166.353 542.869 165.99 543.676C165.632 544.477 165.453 545.406 165.453 546.463C165.453 547.526 165.629 548.466 165.981 549.284C166.333 550.097 166.828 550.733 167.464 551.193C168.106 551.653 168.856 551.884 169.714 551.884C170.294 551.884 170.822 551.776 171.299 551.56C171.782 551.338 172.186 551.026 172.51 550.622C172.839 550.219 173.061 549.739 173.174 549.182H174.708C174.595 549.972 174.314 550.676 173.865 551.295C173.422 551.909 172.845 552.392 172.135 552.744C171.43 553.097 170.623 553.273 169.714 553.273ZM183.116 539.909V541.23H176.869V539.909H183.116ZM178.821 536.773H180.346V549.582C180.346 550.128 180.44 550.557 180.627 550.869C180.815 551.176 181.059 551.395 181.36 551.526C181.662 551.651 181.983 551.713 182.324 551.713C182.522 551.713 182.693 551.702 182.835 551.679C182.977 551.651 183.102 551.622 183.21 551.594L183.534 552.966C183.386 553.023 183.204 553.074 182.988 553.119C182.772 553.17 182.505 553.196 182.187 553.196C181.63 553.196 181.093 553.074 180.576 552.83C180.065 552.585 179.645 552.222 179.315 551.739C178.985 551.256 178.821 550.656 178.821 549.94V536.773ZM195.123 542.781L193.733 543.173C193.597 542.781 193.404 542.426 193.154 542.108C192.904 541.79 192.577 541.537 192.174 541.349C191.776 541.162 191.282 541.068 190.691 541.068C189.804 541.068 189.077 541.278 188.509 541.699C187.941 542.119 187.657 542.662 187.657 543.327C187.657 543.889 187.85 544.347 188.236 544.699C188.628 545.045 189.23 545.321 190.043 545.526L192.02 546.011C193.117 546.278 193.938 546.702 194.483 547.281C195.034 547.861 195.31 548.588 195.31 549.463C195.31 550.202 195.105 550.858 194.696 551.432C194.287 552.006 193.716 552.457 192.983 552.787C192.256 553.111 191.412 553.273 190.452 553.273C189.174 553.273 188.12 552.986 187.29 552.412C186.461 551.832 185.929 550.997 185.696 549.906L187.154 549.548C187.341 550.327 187.708 550.915 188.253 551.312C188.804 551.71 189.529 551.909 190.426 551.909C191.432 551.909 192.236 551.685 192.838 551.236C193.441 550.781 193.742 550.213 193.742 549.531C193.742 549.003 193.566 548.56 193.213 548.202C192.861 547.838 192.327 547.571 191.611 547.401L189.472 546.889C188.336 546.616 187.495 546.185 186.949 545.594C186.404 545.003 186.131 544.27 186.131 543.395C186.131 542.673 186.327 542.04 186.719 541.494C187.111 540.943 187.651 540.511 188.338 540.199C189.026 539.886 189.81 539.73 190.691 539.73C191.89 539.73 192.847 540.003 193.563 540.548C194.284 541.088 194.804 541.832 195.123 542.781Z" fill="white"/>
<path d="M602.996 231.545L608.451 246.929H608.604L614.059 231.545H615.729L609.38 249H607.675L601.326 231.545H602.996ZM631.571 237H629.968C629.849 236.403 629.633 235.852 629.321 235.347C629.014 234.835 628.627 234.389 628.162 234.009C627.696 233.628 627.167 233.332 626.576 233.122C625.985 232.912 625.346 232.807 624.659 232.807C623.556 232.807 622.551 233.094 621.642 233.668C620.738 234.241 620.014 235.085 619.468 236.199C618.929 237.307 618.659 238.665 618.659 240.273C618.659 241.892 618.929 243.256 619.468 244.364C620.014 245.472 620.738 246.312 621.642 246.886C622.551 247.455 623.556 247.739 624.659 247.739C625.346 247.739 625.985 247.634 626.576 247.423C627.167 247.213 627.696 246.92 628.162 246.545C628.627 246.165 629.014 245.719 629.321 245.207C629.633 244.696 629.849 244.142 629.968 243.545H631.571C631.429 244.347 631.162 245.094 630.77 245.787C630.383 246.474 629.889 247.077 629.287 247.594C628.69 248.111 628.002 248.514 627.224 248.804C626.446 249.094 625.591 249.239 624.659 249.239C623.193 249.239 621.892 248.872 620.755 248.139C619.619 247.401 618.727 246.361 618.079 245.02C617.437 243.679 617.116 242.097 617.116 240.273C617.116 238.449 617.437 236.866 618.079 235.526C618.727 234.185 619.619 233.148 620.755 232.415C621.892 231.676 623.193 231.307 624.659 231.307C625.591 231.307 626.446 231.452 627.224 231.741C628.002 232.026 628.69 232.429 629.287 232.952C629.889 233.469 630.383 234.071 630.77 234.759C631.162 235.446 631.429 236.193 631.571 237ZM643.794 238.781L642.405 239.173C642.269 238.781 642.076 238.426 641.826 238.108C641.576 237.79 641.249 237.537 640.846 237.349C640.448 237.162 639.953 237.068 639.363 237.068C638.476 237.068 637.749 237.278 637.181 237.699C636.613 238.119 636.328 238.662 636.328 239.327C636.328 239.889 636.522 240.347 636.908 240.699C637.3 241.045 637.902 241.321 638.715 241.526L640.692 242.011C641.789 242.278 642.61 242.702 643.155 243.281C643.706 243.861 643.982 244.588 643.982 245.463C643.982 246.202 643.777 246.858 643.368 247.432C642.959 248.006 642.388 248.457 641.655 248.787C640.928 249.111 640.084 249.273 639.124 249.273C637.846 249.273 636.792 248.986 635.962 248.412C635.132 247.832 634.601 246.997 634.368 245.906L635.826 245.548C636.013 246.327 636.38 246.915 636.925 247.312C637.476 247.71 638.201 247.909 639.098 247.909C640.104 247.909 640.908 247.685 641.51 247.236C642.113 246.781 642.414 246.213 642.414 245.531C642.414 245.003 642.238 244.56 641.885 244.202C641.533 243.838 640.999 243.571 640.283 243.401L638.144 242.889C637.007 242.616 636.167 242.185 635.621 241.594C635.076 241.003 634.803 240.27 634.803 239.395C634.803 238.673 634.999 238.04 635.391 237.494C635.783 236.943 636.323 236.511 637.01 236.199C637.698 235.886 638.482 235.73 639.363 235.73C640.561 235.73 641.519 236.003 642.235 236.548C642.956 237.088 643.476 237.832 643.794 238.781ZM658.724 249.239C657.65 249.239 656.713 249.031 655.912 248.616C655.11 248.196 654.488 247.625 654.045 246.903C653.602 246.182 653.38 245.366 653.38 244.457C653.38 243.798 653.514 243.205 653.781 242.676C654.054 242.142 654.446 241.636 654.957 241.159C655.468 240.676 656.088 240.176 656.815 239.659L659.346 237.776C659.949 237.344 660.406 236.92 660.718 236.506C661.037 236.085 661.196 235.571 661.196 234.963C661.196 234.378 660.974 233.855 660.531 233.395C660.093 232.929 659.525 232.696 658.826 232.696C658.338 232.696 657.9 232.818 657.514 233.062C657.133 233.307 656.829 233.625 656.602 234.017C656.38 234.403 656.27 234.81 656.27 235.236C656.27 235.634 656.372 236.034 656.576 236.438C656.781 236.835 657.056 237.256 657.403 237.699C657.75 238.136 658.136 238.619 658.562 239.148L666.539 249H664.699L657.744 240.469C657.159 239.753 656.639 239.114 656.184 238.551C655.73 237.983 655.372 237.438 655.11 236.915C654.849 236.386 654.718 235.821 654.718 235.219C654.718 234.474 654.892 233.812 655.238 233.233C655.585 232.648 656.062 232.187 656.67 231.852C657.284 231.517 657.985 231.349 658.775 231.349C659.582 231.349 660.281 231.514 660.872 231.844C661.468 232.173 661.929 232.611 662.252 233.156C662.582 233.702 662.747 234.304 662.747 234.963C662.747 235.753 662.542 236.452 662.133 237.06C661.73 237.668 661.142 238.264 660.369 238.849L657.199 241.219C656.329 241.872 655.733 242.477 655.409 243.034C655.085 243.591 654.923 244.065 654.923 244.457C654.923 245.071 655.082 245.636 655.4 246.153C655.718 246.67 656.159 247.085 656.721 247.398C657.289 247.71 657.94 247.869 658.673 247.875C659.4 247.869 660.085 247.724 660.727 247.44C661.369 247.151 661.943 246.739 662.449 246.205C662.96 245.67 663.369 245.031 663.676 244.287C663.988 243.543 664.17 242.713 664.221 241.798L665.696 241.815C665.673 242.753 665.545 243.548 665.312 244.202C665.085 244.849 664.824 245.384 664.528 245.804C664.233 246.224 663.974 246.562 663.752 246.818C663.69 246.903 663.627 246.989 663.565 247.074C663.502 247.159 663.437 247.244 663.369 247.33C662.801 247.955 662.093 248.429 661.247 248.753C660.406 249.077 659.565 249.239 658.724 249.239ZM679.059 249L674.278 231.545H675.897L679.852 246.554H679.988L683.943 231.545H685.784L689.738 246.554H689.875L693.829 231.545H695.457L690.676 249H688.971L684.923 234.196H684.812L680.764 249H679.059ZM702.096 249.273C700.875 249.273 699.818 248.989 698.926 248.42C698.034 247.847 697.343 247.054 696.855 246.043C696.372 245.026 696.13 243.855 696.13 242.531C696.13 241.213 696.372 240.043 696.855 239.02C697.343 237.991 698.017 237.187 698.875 236.608C699.738 236.023 700.735 235.73 701.866 235.73C702.576 235.73 703.261 235.861 703.92 236.122C704.579 236.378 705.17 236.773 705.693 237.307C706.221 237.835 706.639 238.503 706.946 239.31C707.252 240.111 707.406 241.06 707.406 242.156V242.906H697.179V241.568H705.855C705.855 240.727 705.684 239.972 705.343 239.301C705.008 238.625 704.539 238.091 703.937 237.699C703.341 237.307 702.65 237.111 701.866 237.111C701.037 237.111 700.306 237.332 699.676 237.776C699.045 238.219 698.551 238.804 698.193 239.531C697.841 240.259 697.662 241.054 697.656 241.918V242.719C697.656 243.759 697.835 244.668 698.193 245.446C698.556 246.219 699.071 246.818 699.735 247.244C700.4 247.67 701.187 247.884 702.096 247.884C702.716 247.884 703.258 247.787 703.724 247.594C704.196 247.401 704.591 247.142 704.909 246.818C705.233 246.489 705.477 246.128 705.642 245.736L707.082 246.205C706.883 246.756 706.556 247.264 706.102 247.73C705.653 248.196 705.091 248.571 704.414 248.855C703.744 249.134 702.971 249.273 702.096 249.273ZM711.064 249V231.545H712.59V238.406H712.726C712.897 238.014 713.141 237.611 713.459 237.196C713.783 236.781 714.206 236.435 714.729 236.156C715.257 235.872 715.922 235.73 716.723 235.73C717.797 235.73 718.74 236.014 719.553 236.582C720.365 237.145 720.999 237.935 721.453 238.952C721.908 239.963 722.135 241.142 722.135 242.489C722.135 243.841 721.908 245.026 721.453 246.043C721.005 247.06 720.374 247.852 719.561 248.42C718.755 248.989 717.817 249.273 716.749 249.273C715.953 249.273 715.289 249.131 714.755 248.847C714.226 248.562 713.8 248.213 713.476 247.798C713.152 247.378 712.902 246.969 712.726 246.571H712.539V249H711.064ZM712.564 242.463C712.564 243.52 712.721 244.457 713.033 245.276C713.351 246.088 713.806 246.727 714.397 247.193C714.993 247.653 715.715 247.884 716.561 247.884C717.431 247.884 718.167 247.645 718.769 247.168C719.371 246.685 719.828 246.034 720.141 245.216C720.453 244.398 720.61 243.48 720.61 242.463C720.61 241.457 720.453 240.551 720.141 239.744C719.834 238.937 719.38 238.298 718.777 237.827C718.175 237.349 717.436 237.111 716.561 237.111C715.709 237.111 714.985 237.341 714.388 237.801C713.797 238.256 713.346 238.886 713.033 239.693C712.721 240.494 712.564 241.418 712.564 242.463ZM731.076 249.239C730.002 249.239 729.042 249.045 728.195 248.659C727.348 248.267 726.678 247.724 726.184 247.031C725.689 246.338 725.428 245.54 725.4 244.636H727.01C727.039 245.273 727.235 245.83 727.598 246.307C727.962 246.778 728.445 247.148 729.047 247.415C729.65 247.676 730.32 247.807 731.059 247.807C731.865 247.807 732.576 247.656 733.189 247.355C733.809 247.054 734.292 246.642 734.638 246.119C734.99 245.591 735.167 244.994 735.167 244.33C735.167 243.625 734.988 243.003 734.63 242.463C734.272 241.923 733.757 241.503 733.087 241.202C732.422 240.901 731.627 240.75 730.701 240.75H729.678V239.318H730.701C731.456 239.318 732.124 239.182 732.703 238.909C733.289 238.631 733.749 238.241 734.084 237.741C734.419 237.241 734.587 236.653 734.587 235.977C734.587 235.335 734.442 234.77 734.152 234.281C733.863 233.793 733.453 233.409 732.925 233.131C732.402 232.852 731.792 232.713 731.093 232.713C730.417 232.713 729.797 232.844 729.235 233.105C728.672 233.366 728.218 233.736 727.871 234.213C727.53 234.69 727.348 235.256 727.326 235.909H725.783C725.806 235 726.056 234.202 726.533 233.514C727.016 232.821 727.655 232.281 728.451 231.895C729.252 231.503 730.138 231.307 731.11 231.307C732.138 231.307 733.027 231.517 733.777 231.938C734.527 232.358 735.107 232.918 735.516 233.616C735.931 234.31 736.138 235.074 736.138 235.909C736.138 236.903 735.868 237.756 735.328 238.466C734.789 239.17 734.061 239.659 733.147 239.932V240.043C734.26 240.264 735.135 240.759 735.772 241.526C736.414 242.287 736.735 243.222 736.735 244.33C736.735 245.261 736.49 246.099 736.002 246.844C735.513 247.582 734.843 248.168 733.99 248.599C733.144 249.026 732.172 249.239 731.076 249.239ZM747.627 249V231.545H753.26C754.499 231.545 755.533 231.784 756.363 232.261C757.198 232.733 757.826 233.375 758.246 234.188C758.672 235 758.885 235.915 758.885 236.932C758.885 237.949 758.675 238.866 758.255 239.685C757.834 240.497 757.209 241.142 756.38 241.619C755.55 242.091 754.519 242.327 753.286 242.327H748.854V240.895H753.243C754.158 240.895 754.917 240.724 755.519 240.384C756.121 240.037 756.57 239.565 756.865 238.969C757.167 238.372 757.317 237.693 757.317 236.932C757.317 236.17 757.167 235.491 756.865 234.895C756.57 234.298 756.118 233.83 755.51 233.489C754.908 233.148 754.144 232.977 753.218 232.977H749.221V249H747.627ZM765.968 249.298C765.178 249.298 764.456 249.145 763.803 248.838C763.15 248.526 762.63 248.077 762.243 247.491C761.857 246.901 761.664 246.185 761.664 245.344C761.664 244.696 761.786 244.151 762.03 243.707C762.275 243.264 762.621 242.901 763.07 242.616C763.519 242.332 764.05 242.108 764.664 241.943C765.277 241.778 765.953 241.651 766.692 241.56C767.425 241.469 768.044 241.389 768.55 241.321C769.061 241.253 769.451 241.145 769.718 240.997C769.985 240.849 770.118 240.611 770.118 240.281V239.974C770.118 239.082 769.851 238.381 769.317 237.869C768.789 237.352 768.027 237.094 767.033 237.094C766.09 237.094 765.32 237.301 764.723 237.716C764.132 238.131 763.718 238.619 763.479 239.182L762.039 238.662C762.334 237.946 762.743 237.375 763.266 236.949C763.789 236.517 764.374 236.207 765.022 236.02C765.669 235.827 766.326 235.73 766.99 235.73C767.49 235.73 768.01 235.795 768.55 235.926C769.096 236.057 769.601 236.284 770.067 236.608C770.533 236.926 770.911 237.372 771.201 237.946C771.49 238.514 771.635 239.236 771.635 240.111V249H770.118V246.929H770.025C769.843 247.315 769.573 247.69 769.215 248.054C768.857 248.418 768.408 248.716 767.868 248.949C767.328 249.182 766.695 249.298 765.968 249.298ZM766.172 247.909C766.979 247.909 767.678 247.73 768.269 247.372C768.86 247.014 769.314 246.54 769.632 245.949C769.956 245.352 770.118 244.696 770.118 243.98V242.088C770.005 242.196 769.814 242.293 769.547 242.378C769.286 242.463 768.982 242.54 768.635 242.608C768.294 242.67 767.953 242.724 767.613 242.77C767.272 242.815 766.965 242.855 766.692 242.889C765.953 242.98 765.323 243.122 764.8 243.315C764.277 243.509 763.877 243.776 763.598 244.116C763.32 244.452 763.181 244.884 763.181 245.412C763.181 246.207 763.465 246.824 764.033 247.261C764.601 247.693 765.314 247.909 766.172 247.909ZM775.671 249V235.909H777.145V237.92H777.256C777.517 237.261 777.972 236.73 778.62 236.327C779.273 235.918 780.012 235.713 780.836 235.713C780.961 235.713 781.1 235.716 781.253 235.722C781.407 235.727 781.534 235.733 781.637 235.739V237.281C781.569 237.27 781.449 237.253 781.279 237.23C781.108 237.207 780.924 237.196 780.725 237.196C780.043 237.196 779.435 237.341 778.901 237.631C778.373 237.915 777.955 238.31 777.648 238.815C777.341 239.321 777.188 239.898 777.188 240.545V249H775.671ZM790.202 235.909V237.23H783.955V235.909H790.202ZM785.907 232.773H787.432V245.582C787.432 246.128 787.526 246.557 787.713 246.869C787.901 247.176 788.145 247.395 788.446 247.526C788.748 247.651 789.069 247.713 789.409 247.713C789.608 247.713 789.779 247.702 789.921 247.679C790.063 247.651 790.188 247.622 790.296 247.594L790.62 248.966C790.472 249.023 790.29 249.074 790.074 249.119C789.858 249.17 789.591 249.196 789.273 249.196C788.716 249.196 788.179 249.074 787.662 248.83C787.151 248.585 786.73 248.222 786.401 247.739C786.071 247.256 785.907 246.656 785.907 245.94V232.773ZM795.164 240.818V249H793.647V235.909H795.122V237.963H795.258C795.565 237.293 796.042 236.756 796.69 236.352C797.343 235.943 798.15 235.739 799.11 235.739C799.991 235.739 800.764 235.923 801.429 236.293C802.099 236.656 802.619 237.193 802.988 237.903C803.363 238.614 803.551 239.486 803.551 240.52V249H802.034V240.614C802.034 239.54 801.733 238.69 801.13 238.065C800.534 237.44 799.733 237.128 798.727 237.128C798.039 237.128 797.429 237.276 796.895 237.571C796.36 237.866 795.937 238.293 795.625 238.849C795.318 239.401 795.164 240.057 795.164 240.818ZM812.838 249.273C811.617 249.273 810.56 248.989 809.668 248.42C808.776 247.847 808.086 247.054 807.597 246.043C807.114 245.026 806.873 243.855 806.873 242.531C806.873 241.213 807.114 240.043 807.597 239.02C808.086 237.991 808.759 237.187 809.617 236.608C810.48 236.023 811.478 235.73 812.608 235.73C813.319 235.73 814.003 235.861 814.662 236.122C815.321 236.378 815.912 236.773 816.435 237.307C816.963 237.835 817.381 238.503 817.688 239.31C817.995 240.111 818.148 241.06 818.148 242.156V242.906H807.921V241.568H816.597C816.597 240.727 816.426 239.972 816.086 239.301C815.75 238.625 815.282 238.091 814.679 237.699C814.083 237.307 813.392 237.111 812.608 237.111C811.779 237.111 811.049 237.332 810.418 237.776C809.787 238.219 809.293 238.804 808.935 239.531C808.583 240.259 808.404 241.054 808.398 241.918V242.719C808.398 243.759 808.577 244.668 808.935 245.446C809.299 246.219 809.813 246.818 810.478 247.244C811.142 247.67 811.929 247.884 812.838 247.884C813.458 247.884 814 247.787 814.466 247.594C814.938 247.401 815.333 247.142 815.651 246.818C815.975 246.489 816.219 246.128 816.384 245.736L817.824 246.205C817.625 246.756 817.299 247.264 816.844 247.73C816.395 248.196 815.833 248.571 815.157 248.855C814.486 249.134 813.713 249.273 812.838 249.273ZM821.491 249V235.909H822.966V237.92H823.076C823.338 237.261 823.792 236.73 824.44 236.327C825.093 235.918 825.832 235.713 826.656 235.713C826.781 235.713 826.92 235.716 827.074 235.722C827.227 235.727 827.355 235.733 827.457 235.739V237.281C827.389 237.27 827.27 237.253 827.099 237.23C826.929 237.207 826.744 237.196 826.545 237.196C825.863 237.196 825.255 237.341 824.721 237.631C824.193 237.915 823.775 238.31 823.468 238.815C823.162 239.321 823.008 239.898 823.008 240.545V249H821.491ZM838.841 238.781L837.452 239.173C837.316 238.781 837.123 238.426 836.873 238.108C836.623 237.79 836.296 237.537 835.892 237.349C835.495 237.162 835 237.068 834.409 237.068C833.523 237.068 832.796 237.278 832.228 237.699C831.659 238.119 831.375 238.662 831.375 239.327C831.375 239.889 831.569 240.347 831.955 240.699C832.347 241.045 832.949 241.321 833.762 241.526L835.739 242.011C836.836 242.278 837.657 242.702 838.202 243.281C838.753 243.861 839.029 244.588 839.029 245.463C839.029 246.202 838.824 246.858 838.415 247.432C838.006 248.006 837.435 248.457 836.702 248.787C835.975 249.111 835.131 249.273 834.171 249.273C832.892 249.273 831.838 248.986 831.009 248.412C830.179 247.832 829.648 246.997 829.415 245.906L830.873 245.548C831.06 246.327 831.426 246.915 831.972 247.312C832.523 247.71 833.248 247.909 834.145 247.909C835.151 247.909 835.955 247.685 836.557 247.236C837.159 246.781 837.461 246.213 837.461 245.531C837.461 245.003 837.284 244.56 836.932 244.202C836.58 243.838 836.046 243.571 835.33 243.401L833.191 242.889C832.054 242.616 831.213 242.185 830.668 241.594C830.123 241.003 829.85 240.27 829.85 239.395C829.85 238.673 830.046 238.04 830.438 237.494C830.83 236.943 831.37 236.511 832.057 236.199C832.745 235.886 833.529 235.73 834.409 235.73C835.608 235.73 836.566 236.003 837.282 236.548C838.003 237.088 838.523 237.832 838.841 238.781Z" fill="white"/>
<path d="M1179.66 524V506.545H1185.55C1186.68 506.545 1187.63 506.744 1188.39 507.142C1189.15 507.54 1189.72 508.082 1190.1 508.77C1190.48 509.457 1190.67 510.239 1190.67 511.114C1190.67 511.841 1190.55 512.463 1190.3 512.98C1190.06 513.497 1189.73 513.915 1189.31 514.233C1188.89 514.551 1188.42 514.781 1187.9 514.923V515.06C1188.46 515.099 1189.01 515.298 1189.54 515.656C1190.06 516.009 1190.5 516.503 1190.84 517.139C1191.18 517.776 1191.35 518.537 1191.35 519.423C1191.35 520.304 1191.16 521.091 1190.76 521.784C1190.37 522.472 1189.77 523.014 1188.96 523.412C1188.15 523.804 1187.12 524 1185.87 524H1179.66ZM1181.25 522.568H1185.87C1187.22 522.568 1188.21 522.27 1188.85 521.673C1189.5 521.077 1189.83 520.327 1189.83 519.423C1189.83 518.759 1189.66 518.156 1189.34 517.616C1189.02 517.071 1188.57 516.639 1187.98 516.321C1187.41 516.003 1186.72 515.844 1185.94 515.844H1181.25V522.568ZM1181.25 514.429H1185.69C1186.38 514.429 1186.98 514.287 1187.5 514.003C1188.02 513.719 1188.42 513.327 1188.71 512.827C1189 512.327 1189.14 511.756 1189.14 511.114C1189.14 510.187 1188.84 509.435 1188.24 508.855C1187.64 508.27 1186.74 507.977 1185.55 507.977H1181.25V514.429ZM1203.2 518.997V510.909H1204.72V524H1203.2V521.827H1203.08C1202.77 522.497 1202.29 523.057 1201.62 523.506C1200.96 523.949 1200.15 524.17 1199.19 524.17C1198.35 524.17 1197.61 523.989 1196.96 523.625C1196.31 523.256 1195.81 522.716 1195.44 522.006C1195.07 521.295 1194.88 520.423 1194.88 519.389V510.909H1196.4V519.295C1196.4 520.318 1196.7 521.142 1197.3 521.767C1197.9 522.386 1198.68 522.696 1199.62 522.696C1200.21 522.696 1200.78 522.554 1201.32 522.27C1201.87 521.986 1202.32 521.571 1202.67 521.026C1203.02 520.474 1203.2 519.798 1203.2 518.997ZM1208.75 524V510.909H1210.28V524H1208.75ZM1209.53 508.659C1209.21 508.659 1208.95 508.554 1208.72 508.344C1208.5 508.128 1208.39 507.869 1208.39 507.568C1208.39 507.267 1208.5 507.011 1208.72 506.801C1208.95 506.585 1209.21 506.477 1209.53 506.477C1209.84 506.477 1210.11 506.585 1210.33 506.801C1210.55 507.011 1210.66 507.267 1210.66 507.568C1210.66 507.869 1210.55 508.128 1210.33 508.344C1210.11 508.554 1209.84 508.659 1209.53 508.659ZM1215.81 506.545V524H1214.29V506.545H1215.81ZM1224.53 524.273C1223.46 524.273 1222.52 523.989 1221.71 523.42C1220.9 522.852 1220.27 522.06 1219.82 521.043C1219.37 520.026 1219.15 518.841 1219.15 517.489C1219.15 516.142 1219.37 514.963 1219.82 513.952C1220.27 512.935 1220.91 512.145 1221.72 511.582C1222.53 511.014 1223.48 510.73 1224.56 510.73C1225.35 510.73 1226.02 510.872 1226.54 511.156C1227.07 511.435 1227.5 511.781 1227.81 512.196C1228.13 512.611 1228.38 513.014 1228.56 513.406H1228.69V506.545H1230.22V524H1228.73V521.571H1228.56C1228.38 521.969 1228.13 522.378 1227.81 522.798C1227.48 523.213 1227.05 523.562 1226.52 523.847C1225.99 524.131 1225.33 524.273 1224.53 524.273ZM1224.71 522.884C1225.56 522.884 1226.28 522.653 1226.88 522.193C1227.47 521.727 1227.93 521.088 1228.24 520.276C1228.56 519.457 1228.72 518.52 1228.72 517.463C1228.72 516.418 1228.56 515.494 1228.25 514.693C1227.94 513.886 1227.48 513.256 1226.88 512.801C1226.29 512.341 1225.56 512.111 1224.71 512.111C1223.84 512.111 1223.1 512.349 1222.5 512.827C1221.9 513.298 1221.44 513.937 1221.13 514.744C1220.82 515.551 1220.67 516.457 1220.67 517.463C1220.67 518.48 1220.83 519.398 1221.14 520.216C1221.45 521.034 1221.91 521.685 1222.5 522.168C1223.11 522.645 1223.84 522.884 1224.71 522.884ZM1239.83 524.273C1238.61 524.273 1237.55 523.989 1236.66 523.42C1235.77 522.847 1235.08 522.054 1234.59 521.043C1234.11 520.026 1233.86 518.855 1233.86 517.531C1233.86 516.213 1234.11 515.043 1234.59 514.02C1235.08 512.991 1235.75 512.187 1236.61 511.608C1237.47 511.023 1238.47 510.73 1239.6 510.73C1240.31 510.73 1241 510.861 1241.65 511.122C1242.31 511.378 1242.9 511.773 1243.43 512.307C1243.96 512.835 1244.37 513.503 1244.68 514.31C1244.99 515.111 1245.14 516.06 1245.14 517.156V517.906H1234.91V516.568H1243.59C1243.59 515.727 1243.42 514.972 1243.08 514.301C1242.74 513.625 1242.27 513.091 1241.67 512.699C1241.07 512.307 1240.38 512.111 1239.6 512.111C1238.77 512.111 1238.04 512.332 1237.41 512.776C1236.78 513.219 1236.29 513.804 1235.93 514.531C1235.57 515.259 1235.4 516.054 1235.39 516.918V517.719C1235.39 518.759 1235.57 519.668 1235.93 520.446C1236.29 521.219 1236.81 521.818 1237.47 522.244C1238.13 522.67 1238.92 522.884 1239.83 522.884C1240.45 522.884 1240.99 522.787 1241.46 522.594C1241.93 522.401 1242.32 522.142 1242.64 521.818C1242.97 521.489 1243.21 521.128 1243.38 520.736L1244.82 521.205C1244.62 521.756 1244.29 522.264 1243.84 522.73C1243.39 523.196 1242.82 523.571 1242.15 523.855C1241.48 524.134 1240.71 524.273 1239.83 524.273ZM1248.48 524V510.909H1249.96V512.92H1250.07C1250.33 512.261 1250.78 511.73 1251.43 511.327C1252.09 510.918 1252.82 510.713 1253.65 510.713C1253.77 510.713 1253.91 510.716 1254.07 510.722C1254.22 510.727 1254.35 510.733 1254.45 510.739V512.281C1254.38 512.27 1254.26 512.253 1254.09 512.23C1253.92 512.207 1253.74 512.196 1253.54 512.196C1252.86 512.196 1252.25 512.341 1251.71 512.631C1251.19 512.915 1250.77 513.31 1250.46 513.815C1250.15 514.321 1250 514.898 1250 515.545V524H1248.48ZM1265.83 513.781L1264.44 514.173C1264.31 513.781 1264.11 513.426 1263.86 513.108C1263.61 512.79 1263.29 512.537 1262.88 512.349C1262.49 512.162 1261.99 512.068 1261.4 512.068C1260.52 512.068 1259.79 512.278 1259.22 512.699C1258.65 513.119 1258.37 513.662 1258.37 514.327C1258.37 514.889 1258.56 515.347 1258.95 515.699C1259.34 516.045 1259.94 516.321 1260.75 516.526L1262.73 517.011C1263.83 517.278 1264.65 517.702 1265.19 518.281C1265.75 518.861 1266.02 519.588 1266.02 520.463C1266.02 521.202 1265.82 521.858 1265.41 522.432C1265 523.006 1264.43 523.457 1263.69 523.787C1262.97 524.111 1262.12 524.273 1261.16 524.273C1259.88 524.273 1258.83 523.986 1258 523.412C1257.17 522.832 1256.64 521.997 1256.41 520.906L1257.86 520.548C1258.05 521.327 1258.42 521.915 1258.96 522.312C1259.52 522.71 1260.24 522.909 1261.14 522.909C1262.14 522.909 1262.95 522.685 1263.55 522.236C1264.15 521.781 1264.45 521.213 1264.45 520.531C1264.45 520.003 1264.28 519.56 1263.92 519.202C1263.57 518.838 1263.04 518.571 1262.32 518.401L1260.18 517.889C1259.05 517.616 1258.21 517.185 1257.66 516.594C1257.11 516.003 1256.84 515.27 1256.84 514.395C1256.84 513.673 1257.04 513.04 1257.43 512.494C1257.82 511.943 1258.36 511.511 1259.05 511.199C1259.74 510.886 1260.52 510.73 1261.4 510.73C1262.6 510.73 1263.56 511.003 1264.27 511.548C1265 512.088 1265.52 512.832 1265.83 513.781ZM1280.76 524.239C1279.69 524.239 1278.75 524.031 1277.95 523.616C1277.15 523.196 1276.53 522.625 1276.08 521.903C1275.64 521.182 1275.42 520.366 1275.42 519.457C1275.42 518.798 1275.55 518.205 1275.82 517.676C1276.09 517.142 1276.48 516.636 1277 516.159C1277.51 515.676 1278.13 515.176 1278.85 514.659L1281.39 512.776C1281.99 512.344 1282.44 511.92 1282.76 511.506C1283.08 511.085 1283.23 510.571 1283.23 509.963C1283.23 509.378 1283.01 508.855 1282.57 508.395C1282.13 507.929 1281.56 507.696 1280.87 507.696C1280.38 507.696 1279.94 507.818 1279.55 508.062C1279.17 508.307 1278.87 508.625 1278.64 509.017C1278.42 509.403 1278.31 509.81 1278.31 510.236C1278.31 510.634 1278.41 511.034 1278.62 511.438C1278.82 511.835 1279.1 512.256 1279.44 512.699C1279.79 513.136 1280.18 513.619 1280.6 514.148L1288.58 524H1286.74L1279.78 515.469C1279.2 514.753 1278.68 514.114 1278.22 513.551C1277.77 512.983 1277.41 512.438 1277.15 511.915C1276.89 511.386 1276.76 510.821 1276.76 510.219C1276.76 509.474 1276.93 508.812 1277.28 508.233C1277.62 507.648 1278.1 507.187 1278.71 506.852C1279.32 506.517 1280.02 506.349 1280.81 506.349C1281.62 506.349 1282.32 506.514 1282.91 506.844C1283.51 507.173 1283.97 507.611 1284.29 508.156C1284.62 508.702 1284.79 509.304 1284.79 509.963C1284.79 510.753 1284.58 511.452 1284.17 512.06C1283.77 512.668 1283.18 513.264 1282.41 513.849L1279.24 516.219C1278.37 516.872 1277.77 517.477 1277.45 518.034C1277.12 518.591 1276.96 519.065 1276.96 519.457C1276.96 520.071 1277.12 520.636 1277.44 521.153C1277.76 521.67 1278.2 522.085 1278.76 522.398C1279.33 522.71 1279.98 522.869 1280.71 522.875C1281.44 522.869 1282.12 522.724 1282.77 522.44C1283.41 522.151 1283.98 521.739 1284.49 521.205C1285 520.67 1285.41 520.031 1285.71 519.287C1286.03 518.543 1286.21 517.713 1286.26 516.798L1287.73 516.815C1287.71 517.753 1287.58 518.548 1287.35 519.202C1287.12 519.849 1286.86 520.384 1286.57 520.804C1286.27 521.224 1286.01 521.562 1285.79 521.818C1285.73 521.903 1285.67 521.989 1285.6 522.074C1285.54 522.159 1285.48 522.244 1285.41 522.33C1284.84 522.955 1284.13 523.429 1283.29 523.753C1282.44 524.077 1281.6 524.239 1280.76 524.239ZM1311.73 512H1310.13C1310.01 511.403 1309.8 510.852 1309.48 510.347C1309.18 509.835 1308.79 509.389 1308.33 509.009C1307.86 508.628 1307.33 508.332 1306.74 508.122C1306.15 507.912 1305.51 507.807 1304.82 507.807C1303.72 507.807 1302.71 508.094 1301.81 508.668C1300.9 509.241 1300.18 510.085 1299.63 511.199C1299.09 512.307 1298.82 513.665 1298.82 515.273C1298.82 516.892 1299.09 518.256 1299.63 519.364C1300.18 520.472 1300.9 521.312 1301.81 521.886C1302.71 522.455 1303.72 522.739 1304.82 522.739C1305.51 522.739 1306.15 522.634 1306.74 522.423C1307.33 522.213 1307.86 521.92 1308.33 521.545C1308.79 521.165 1309.18 520.719 1309.48 520.207C1309.8 519.696 1310.01 519.142 1310.13 518.545H1311.73C1311.59 519.347 1311.33 520.094 1310.93 520.787C1310.55 521.474 1310.05 522.077 1309.45 522.594C1308.85 523.111 1308.17 523.514 1307.39 523.804C1306.61 524.094 1305.75 524.239 1304.82 524.239C1303.36 524.239 1302.06 523.872 1300.92 523.139C1299.78 522.401 1298.89 521.361 1298.24 520.02C1297.6 518.679 1297.28 517.097 1297.28 515.273C1297.28 513.449 1297.6 511.866 1298.24 510.526C1298.89 509.185 1299.78 508.148 1300.92 507.415C1302.06 506.676 1303.36 506.307 1304.82 506.307C1305.75 506.307 1306.61 506.452 1307.39 506.741C1308.17 507.026 1308.85 507.429 1309.45 507.952C1310.05 508.469 1310.55 509.071 1310.93 509.759C1311.33 510.446 1311.59 511.193 1311.73 512ZM1315.16 524V510.909H1316.64V512.92H1316.75C1317.01 512.261 1317.46 511.73 1318.11 511.327C1318.77 510.918 1319.5 510.713 1320.33 510.713C1320.45 510.713 1320.59 510.716 1320.75 510.722C1320.9 510.727 1321.03 510.733 1321.13 510.739V512.281C1321.06 512.27 1320.94 512.253 1320.77 512.23C1320.6 512.207 1320.42 512.196 1320.22 512.196C1319.54 512.196 1318.93 512.341 1318.39 512.631C1317.86 512.915 1317.45 513.31 1317.14 513.815C1316.83 514.321 1316.68 514.898 1316.68 515.545V524H1315.16ZM1328.61 524.273C1327.39 524.273 1326.33 523.989 1325.44 523.42C1324.55 522.847 1323.86 522.054 1323.37 521.043C1322.89 520.026 1322.65 518.855 1322.65 517.531C1322.65 516.213 1322.89 515.043 1323.37 514.02C1323.86 512.991 1324.53 512.187 1325.39 511.608C1326.25 511.023 1327.25 510.73 1328.38 510.73C1329.09 510.73 1329.78 510.861 1330.44 511.122C1331.09 511.378 1331.69 511.773 1332.21 512.307C1332.74 512.835 1333.15 513.503 1333.46 514.31C1333.77 515.111 1333.92 516.06 1333.92 517.156V517.906H1323.69V516.568H1332.37C1332.37 515.727 1332.2 514.972 1331.86 514.301C1331.52 513.625 1331.06 513.091 1330.45 512.699C1329.86 512.307 1329.17 512.111 1328.38 512.111C1327.55 512.111 1326.82 512.332 1326.19 512.776C1325.56 513.219 1325.07 513.804 1324.71 514.531C1324.36 515.259 1324.18 516.054 1324.17 516.918V517.719C1324.17 518.759 1324.35 519.668 1324.71 520.446C1325.07 521.219 1325.59 521.818 1326.25 522.244C1326.92 522.67 1327.7 522.884 1328.61 522.884C1329.23 522.884 1329.77 522.787 1330.24 522.594C1330.71 522.401 1331.11 522.142 1331.42 521.818C1331.75 521.489 1331.99 521.128 1332.16 520.736L1333.6 521.205C1333.4 521.756 1333.07 522.264 1332.62 522.73C1332.17 523.196 1331.61 523.571 1330.93 523.855C1330.26 524.134 1329.49 524.273 1328.61 524.273ZM1340.92 524.298C1340.13 524.298 1339.41 524.145 1338.76 523.838C1338.1 523.526 1337.58 523.077 1337.2 522.491C1336.81 521.901 1336.62 521.185 1336.62 520.344C1336.62 519.696 1336.74 519.151 1336.98 518.707C1337.23 518.264 1337.57 517.901 1338.02 517.616C1338.47 517.332 1339 517.108 1339.62 516.943C1340.23 516.778 1340.91 516.651 1341.65 516.56C1342.38 516.469 1343 516.389 1343.5 516.321C1344.01 516.253 1344.4 516.145 1344.67 515.997C1344.94 515.849 1345.07 515.611 1345.07 515.281V514.974C1345.07 514.082 1344.8 513.381 1344.27 512.869C1343.74 512.352 1342.98 512.094 1341.99 512.094C1341.04 512.094 1340.27 512.301 1339.68 512.716C1339.09 513.131 1338.67 513.619 1338.43 514.182L1336.99 513.662C1337.29 512.946 1337.7 512.375 1338.22 511.949C1338.74 511.517 1339.33 511.207 1339.97 511.02C1340.62 510.827 1341.28 510.73 1341.94 510.73C1342.44 510.73 1342.96 510.795 1343.5 510.926C1344.05 511.057 1344.55 511.284 1345.02 511.608C1345.49 511.926 1345.86 512.372 1346.15 512.946C1346.44 513.514 1346.59 514.236 1346.59 515.111V524H1345.07V521.929H1344.98C1344.8 522.315 1344.53 522.69 1344.17 523.054C1343.81 523.418 1343.36 523.716 1342.82 523.949C1342.28 524.182 1341.65 524.298 1340.92 524.298ZM1341.13 522.909C1341.93 522.909 1342.63 522.73 1343.22 522.372C1343.81 522.014 1344.27 521.54 1344.59 520.949C1344.91 520.352 1345.07 519.696 1345.07 518.98V517.088C1344.96 517.196 1344.77 517.293 1344.5 517.378C1344.24 517.463 1343.94 517.54 1343.59 517.608C1343.25 517.67 1342.91 517.724 1342.57 517.77C1342.22 517.815 1341.92 517.855 1341.65 517.889C1340.91 517.98 1340.28 518.122 1339.75 518.315C1339.23 518.509 1338.83 518.776 1338.55 519.116C1338.27 519.452 1338.13 519.884 1338.13 520.412C1338.13 521.207 1338.42 521.824 1338.99 522.261C1339.55 522.693 1340.27 522.909 1341.13 522.909ZM1355.78 510.909V512.23H1349.53V510.909H1355.78ZM1351.48 507.773H1353.01V520.582C1353.01 521.128 1353.1 521.557 1353.29 521.869C1353.48 522.176 1353.72 522.395 1354.02 522.526C1354.33 522.651 1354.65 522.713 1354.99 522.713C1355.19 522.713 1355.36 522.702 1355.5 522.679C1355.64 522.651 1355.77 522.622 1355.87 522.594L1356.2 523.966C1356.05 524.023 1355.87 524.074 1355.65 524.119C1355.44 524.17 1355.17 524.196 1354.85 524.196C1354.29 524.196 1353.76 524.074 1353.24 523.83C1352.73 523.585 1352.31 523.222 1351.98 522.739C1351.65 522.256 1351.48 521.656 1351.48 520.94V507.773ZM1359.24 524V510.909H1360.77V524H1359.24ZM1360.02 508.659C1359.71 508.659 1359.44 508.554 1359.22 508.344C1359 508.128 1358.88 507.869 1358.88 507.568C1358.88 507.267 1359 507.011 1359.22 506.801C1359.44 506.585 1359.71 506.477 1360.02 506.477C1360.33 506.477 1360.6 506.585 1360.82 506.801C1361.04 507.011 1361.15 507.267 1361.15 507.568C1361.15 507.869 1361.04 508.128 1360.82 508.344C1360.6 508.554 1360.33 508.659 1360.02 508.659ZM1374.91 510.909L1370.13 524H1368.51L1363.73 510.909H1365.38L1369.26 521.997H1369.38L1373.27 510.909H1374.91ZM1382.71 524.273C1381.48 524.273 1380.43 523.989 1379.54 523.42C1378.64 522.847 1377.95 522.054 1377.46 521.043C1376.98 520.026 1376.74 518.855 1376.74 517.531C1376.74 516.213 1376.98 515.043 1377.46 514.02C1377.95 512.991 1378.63 512.187 1379.48 511.608C1380.35 511.023 1381.34 510.73 1382.48 510.73C1383.19 510.73 1383.87 510.861 1384.53 511.122C1385.19 511.378 1385.78 511.773 1386.3 512.307C1386.83 512.835 1387.25 513.503 1387.56 514.31C1387.86 515.111 1388.02 516.06 1388.02 517.156V517.906H1377.79V516.568H1386.46C1386.46 515.727 1386.29 514.972 1385.95 514.301C1385.62 513.625 1385.15 513.091 1384.55 512.699C1383.95 512.307 1383.26 512.111 1382.48 512.111C1381.65 512.111 1380.92 512.332 1380.29 512.776C1379.65 513.219 1379.16 513.804 1378.8 514.531C1378.45 515.259 1378.27 516.054 1378.27 516.918V517.719C1378.27 518.759 1378.44 519.668 1378.8 520.446C1379.17 521.219 1379.68 521.818 1380.34 522.244C1381.01 522.67 1381.8 522.884 1382.71 522.884C1383.32 522.884 1383.87 522.787 1384.33 522.594C1384.81 522.401 1385.2 522.142 1385.52 521.818C1385.84 521.489 1386.09 521.128 1386.25 520.736L1387.69 521.205C1387.49 521.756 1387.17 522.264 1386.71 522.73C1386.26 523.196 1385.7 523.571 1385.02 523.855C1384.35 524.134 1383.58 524.273 1382.71 524.273ZM1400.15 513.781L1398.76 514.173C1398.63 513.781 1398.44 513.426 1398.19 513.108C1397.94 512.79 1397.61 512.537 1397.2 512.349C1396.81 512.162 1396.31 512.068 1395.72 512.068C1394.84 512.068 1394.11 512.278 1393.54 512.699C1392.97 513.119 1392.69 513.662 1392.69 514.327C1392.69 514.889 1392.88 515.347 1393.27 515.699C1393.66 516.045 1394.26 516.321 1395.07 516.526L1397.05 517.011C1398.15 517.278 1398.97 517.702 1399.51 518.281C1400.07 518.861 1400.34 519.588 1400.34 520.463C1400.34 521.202 1400.14 521.858 1399.73 522.432C1399.32 523.006 1398.75 523.457 1398.01 523.787C1397.29 524.111 1396.44 524.273 1395.48 524.273C1394.2 524.273 1393.15 523.986 1392.32 523.412C1391.49 522.832 1390.96 521.997 1390.73 520.906L1392.19 520.548C1392.37 521.327 1392.74 521.915 1393.28 522.312C1393.84 522.71 1394.56 522.909 1395.46 522.909C1396.46 522.909 1397.27 522.685 1397.87 522.236C1398.47 521.781 1398.77 521.213 1398.77 520.531C1398.77 520.003 1398.6 519.56 1398.24 519.202C1397.89 518.838 1397.36 518.571 1396.64 518.401L1394.5 517.889C1393.37 517.616 1392.53 517.185 1391.98 516.594C1391.44 516.003 1391.16 515.27 1391.16 514.395C1391.16 513.673 1391.36 513.04 1391.75 512.494C1392.14 511.943 1392.68 511.511 1393.37 511.199C1394.06 510.886 1394.84 510.73 1395.72 510.73C1396.92 510.73 1397.88 511.003 1398.59 511.548C1399.32 512.088 1399.84 512.832 1400.15 513.781Z" fill="white"/>
<path d="M1318.23 435.271L1315.27 438.229C1314.88 438.617 1314.35 438.835 1313.8 438.835C1313.25 438.835 1312.72 438.617 1312.33 438.229L1287.58 413.521C1286.91 413.717 1286.21 413.823 1285.5 413.833C1284.17 413.832 1282.87 413.515 1281.69 412.907C1280.51 412.299 1279.49 411.419 1278.72 410.339C1277.95 409.259 1277.45 408.011 1277.26 406.698C1277.07 405.385 1277.19 404.046 1277.63 402.792L1282.92 408.083L1284.02 406.979L1286.98 404.021L1288.08 402.917L1282.79 397.625C1284.05 397.194 1285.39 397.069 1286.7 397.259C1288.01 397.45 1289.26 397.951 1290.34 398.721C1291.42 399.492 1292.3 400.509 1292.91 401.688C1293.51 402.867 1293.83 404.174 1293.83 405.5C1293.82 406.205 1293.72 406.906 1293.52 407.583L1318.23 432.333C1318.62 432.724 1318.84 433.252 1318.84 433.802C1318.84 434.353 1318.62 434.881 1318.23 435.271ZM1277.77 432.333C1277.38 432.724 1277.17 433.252 1277.17 433.802C1277.17 434.353 1277.38 434.881 1277.77 435.271L1280.73 438.229C1281.12 438.617 1281.65 438.835 1282.2 438.835C1282.75 438.835 1283.28 438.617 1283.67 438.229L1295.06 426.854L1289.17 420.958M1314.67 397.167L1306.33 401.333V405.5L1301.81 410.021L1305.98 414.188L1310.5 409.667H1314.67L1318.83 401.333L1314.67 397.167Z" fill="white"/>
<path d="M739.151 158.813C742.834 158.813 744.145 155.823 744.189 153.775L744.189 144.936C744.174 141.238 741.198 139.942 739.151 139.898L734.127 139.913L730.312 136.097C727.513 133.298 724.419 133.151 721.9 134.02L708.819 134.02L702.926 139.913L700.849 139.898C697.152 139.913 695.855 142.888 695.811 144.936L695.811 153.775C695.811 155.366 696.371 156.515 697.181 157.325C698.227 158.371 699.7 158.813 700.849 158.813L708.819 158.798L714.107 164.087C716.612 166.591 719.44 166.297 721.429 165.221C723.536 166.444 725.716 166.09 727.322 165.221C730.194 166.915 733.214 165.604 734.731 164.087L739.151 159.667L738.282 158.798L739.151 158.813ZM731.785 161.141C731.122 161.803 730.032 162.334 728.839 161.141L727.366 159.667L725.893 161.141C725.23 161.803 724.14 162.334 722.946 161.141L721.473 159.667L720 161.141C719.337 161.803 718.247 162.334 717.054 161.141L710.557 154.644H700.893C700.009 154.615 699.995 154.099 699.995 153.775L699.98 144.98C700.01 144.096 700.525 144.082 700.849 144.082L704.665 144.067L710.557 138.174L716.45 138.174L714.107 140.517C712.325 142.299 710.867 146.115 714.107 149.355C717.348 152.596 721.164 151.138 722.946 149.355L733.258 159.667L731.785 161.141ZM739.151 154.629L734.127 154.644L722.946 143.463L720 146.409C719.337 147.072 718.247 147.602 717.054 146.409C715.86 145.216 716.391 144.126 717.054 143.463L721.473 139.043C722.151 138.366 724.67 136.348 727.366 139.043L732.389 144.067L739.107 144.067C739.99 144.096 740.005 144.612 740.005 144.936L740.02 153.731C739.991 154.615 739.475 154.629 739.151 154.629Z" fill="white"/>
<path d="M165 402.981V399.569L161.588 399.19C161.398 399.19 160.261 399 158.365 399C150.592 399 144.905 401.275 141.682 405.256C139.218 403.739 135.806 402.791 131.825 402.791C129.929 402.791 128.602 402.981 128.602 402.981L125 403.55L125.19 406.773C125.379 412.46 128.223 423.265 138.081 423.265H138.46V429.711C131.256 430.659 125.19 433.123 125.19 433.123V436.915H163.104V433.123C163.104 433.123 157.038 430.659 149.834 429.711V423.645C161.777 423.455 165 409.995 165 402.981ZM144.147 429.332H142.251V418.716C142.251 418.716 141.872 412.27 136.564 412.27C136.564 412.27 139.408 413.787 140.166 419.284C139.408 419.474 138.649 419.474 138.081 419.474C129.36 419.474 128.981 406.773 128.981 406.773C128.981 406.773 130.118 406.583 131.825 406.583C135.427 406.583 141.303 407.341 143.009 412.46C143.957 403.929 153.626 402.791 158.365 402.791C160.071 402.791 161.209 402.981 161.209 402.981C161.209 402.981 161.209 420.043 149.265 420.043H147.938C147.938 416.251 151.73 410.564 151.73 410.564C146.043 412.46 146.043 419.853 146.043 419.853V429.332H144.147Z" fill="white"/>
<defs>
<filter id="filter0_d_4336_10" x="89" y="362" width="112" height="112" filterUnits="userSpaceOnUse" color-interpolation-filters="sRGB">
<feFlood flood-opacity="0" result="BackgroundImageFix"/>
<feColorMatrix in="SourceAlpha" type="matrix" values="0 0 0 0 0 0 0 0 0 0 0 0 0 0 0 0 0 0 127 0" result="hardAlpha"/>
<feOffset/>
<feGaussianBlur stdDeviation="5"/>
<feComposite in2="hardAlpha" operator="out"/>
<feColorMatrix type="matrix" values="0 0 0 0 0.180392 0 0 0 0 0.858824 0 0 0 0 0.65098 0 0 0 1 0"/>
<feBlend mode="normal" in2="BackgroundImageFix" result="effect1_dropShadow_4336_10"/>
<feBlend mode="normal" in="SourceGraphic" in2="effect1_dropShadow_4336_10" result="shape"/>
</filter>
<filter id="filter1_d_4336_10" x="1242" y="362" width="112" height="112" filterUnits="userSpaceOnUse" color-interpolation-filters="sRGB">
<feFlood flood-opacity="0" result="BackgroundImageFix"/>
<feColorMatrix in="SourceAlpha" type="matrix" values="0 0 0 0 0 0 0 0 0 0 0 0 0 0 0 0 0 0 127 0" result="hardAlpha"/>
<feOffset/>
<feGaussianBlur stdDeviation="5"/>
<feComposite in2="hardAlpha" operator="out"/>
<feColorMatrix type="matrix" values="0 0 0 0 0.180392 0 0 0 0 0.858824 0 0 0 0 0.65098 0 0 0 1 0"/>
<feBlend mode="normal" in2="BackgroundImageFix" result="effect1_dropShadow_4336_10"/>
<feBlend mode="normal" in="SourceGraphic" in2="effect1_dropShadow_4336_10" result="shape"/>
</filter>
<filter id="filter2_ddddddf_4336_10" x="-89.7579" y="0.242065" width="1619.52" height="1476.52" filterUnits="userSpaceOnUse" color-interpolation-filters="sRGB">
<feFlood flood-opacity="0" result="BackgroundImageFix"/>
<feColorMatrix in="SourceAlpha" type="matrix" values="0 0 0 0 0 0 0 0 0 0 0 0 0 0 0 0 0 0 127 0" result="hardAlpha"/>
<feOffset/>
<feGaussianBlur stdDeviation="1.06855"/>
<feColorMatrix type="matrix" values="0 0 0 0 0.0941176 0 0 0 0 0.647059 0 0 0 0 0.478431 0 0 0 1 0"/>
<feBlend mode="normal" in2="BackgroundImageFix" result="effect1_dropShadow_4336_10"/>
<feColorMatrix in="SourceAlpha" type="matrix" values="0 0 0 0 0 0 0 0 0 0 0 0 0 0 0 0 0 0 127 0" result="hardAlpha"/>
<feOffset/>
<feGaussianBlur stdDeviation="2.13709"/>
<feColorMatrix type="matrix" values="0 0 0 0 0.0941176 0 0 0 0 0.647059 0 0 0 0 0.478431 0 0 0 1 0"/>
<feBlend mode="normal" in2="effect1_dropShadow_4336_10" result="effect2_dropShadow_4336_10"/>
<feColorMatrix in="SourceAlpha" type="matrix" values="0 0 0 0 0 0 0 0 0 0 0 0 0 0 0 0 0 0 127 0" result="hardAlpha"/>
<feOffset/>
<feGaussianBlur stdDeviation="7.47983"/>
<feColorMatrix type="matrix" values="0 0 0 0 0.0941176 0 0 0 0 0.647059 0 0 0 0 0.478431 0 0 0 1 0"/>
<feBlend mode="normal" in2="effect2_dropShadow_4336_10" result="effect3_dropShadow_4336_10"/>
<feColorMatrix in="SourceAlpha" type="matrix" values="0 0 0 0 0 0 0 0 0 0 0 0 0 0 0 0 0 0 127 0" result="hardAlpha"/>
<feOffset/>
<feGaussianBlur stdDeviation="14.9597"/>
<feColorMatrix type="matrix" values="0 0 0 0 0.0941176 0 0 0 0 0.647059 0 0 0 0 0.478431 0 0 0 1 0"/>
<feBlend mode="normal" in2="effect3_dropShadow_4336_10" result="effect4_dropShadow_4336_10"/>
<feColorMatrix in="SourceAlpha" type="matrix" values="0 0 0 0 0 0 0 0 0 0 0 0 0 0 0 0 0 0 127 0" result="hardAlpha"/>
<feOffset/>
<feGaussianBlur stdDeviation="25.6451"/>
<feColorMatrix type="matrix" values="0 0 0 0 0.0941176 0 0 0 0 0.647059 0 0 0 0 0.478431 0 0 0 1 0"/>
<feBlend mode="normal" in2="effect4_dropShadow_4336_10" result="effect5_dropShadow_4336_10"/>
<feColorMatrix in="SourceAlpha" type="matrix" values="0 0 0 0 0 0 0 0 0 0 0 0 0 0 0 0 0 0 127 0" result="hardAlpha"/>
<feOffset/>
<feGaussianBlur stdDeviation="44.879"/>
<feColorMatrix type="matrix" values="0 0 0 0 0.0941176 0 0 0 0 0.647059 0 0 0 0 0.478431 0 0 0 1 0"/>
<feBlend mode="normal" in2="effect5_dropShadow_4336_10" result="effect6_dropShadow_4336_10"/>
<feBlend mode="normal" in="SourceGraphic" in2="effect6_dropShadow_4336_10" result="shape"/>
<feGaussianBlur stdDeviation="1" result="effect7_foregroundBlur_4336_10"/>
</filter>
<filter id="filter3_ddddddf_4336_10" x="-58.7579" y="55.2421" width="1558.52" height="1421.52" filterUnits="userSpaceOnUse" color-interpolation-filters="sRGB">
<feFlood flood-opacity="0" result="BackgroundImageFix"/>
<feColorMatrix in="SourceAlpha" type="matrix" values="0 0 0 0 0 0 0 0 0 0 0 0 0 0 0 0 0 0 127 0" result="hardAlpha"/>
<feOffset/>
<feGaussianBlur stdDeviation="1.06855"/>
<feColorMatrix type="matrix" values="0 0 0 0 0.0941176 0 0 0 0 0.647059 0 0 0 0 0.478431 0 0 0 1 0"/>
<feBlend mode="normal" in2="BackgroundImageFix" result="effect1_dropShadow_4336_10"/>
<feColorMatrix in="SourceAlpha" type="matrix" values="0 0 0 0 0 0 0 0 0 0 0 0 0 0 0 0 0 0 127 0" result="hardAlpha"/>
<feOffset/>
<feGaussianBlur stdDeviation="2.13709"/>
<feColorMatrix type="matrix" values="0 0 0 0 0.0941176 0 0 0 0 0.647059 0 0 0 0 0.478431 0 0 0 1 0"/>
<feBlend mode="normal" in2="effect1_dropShadow_4336_10" result="effect2_dropShadow_4336_10"/>
<feColorMatrix in="SourceAlpha" type="matrix" values="0 0 0 0 0 0 0 0 0 0 0 0 0 0 0 0 0 0 127 0" result="hardAlpha"/>
<feOffset/>
<feGaussianBlur stdDeviation="7.47983"/>
<feColorMatrix type="matrix" values="0 0 0 0 0.0941176 0 0 0 0 0.647059 0 0 0 0 0.478431 0 0 0 1 0"/>
<feBlend mode="normal" in2="effect2_dropShadow_4336_10" result="effect3_dropShadow_4336_10"/>
<feColorMatrix in="SourceAlpha" type="matrix" values="0 0 0 0 0 0 0 0 0 0 0 0 0 0 0 0 0 0 127 0" result="hardAlpha"/>
<feOffset/>
<feGaussianBlur stdDeviation="14.9597"/>
<feColorMatrix type="matrix" values="0 0 0 0 0.0941176 0 0 0 0 0.647059 0 0 0 0 0.478431 0 0 0 1 0"/>
<feBlend mode="normal" in2="effect3_dropShadow_4336_10" result="effect4_dropShadow_4336_10"/>
<feColorMatrix in="SourceAlpha" type="matrix" values="0 0 0 0 0 0 0 0 0 0 0 0 0 0 0 0 0 0 127 0" result="hardAlpha"/>
<feOffset/>
<feGaussianBlur stdDeviation="25.6451"/>
<feColorMatrix type="matrix" values="0 0 0 0 0.0941176 0 0 0 0 0.647059 0 0 0 0 0.478431 0 0 0 1 0"/>
<feBlend mode="normal" in2="effect4_dropShadow_4336_10" result="effect5_dropShadow_4336_10"/>
<feColorMatrix in="SourceAlpha" type="matrix" values="0 0 0 0 0 0 0 0 0 0 0 0 0 0 0 0 0 0 127 0" result="hardAlpha"/>
<feOffset/>
<feGaussianBlur stdDeviation="44.879"/>
<feColorMatrix type="matrix" values="0 0 0 0 0.0941176 0 0 0 0 0.647059 0 0 0 0 0.478431 0 0 0 1 0"/>
<feBlend mode="normal" in2="effect5_dropShadow_4336_10" result="effect6_dropShadow_4336_10"/>
<feBlend mode="normal" in="SourceGraphic" in2="effect6_dropShadow_4336_10" result="shape"/>
<feGaussianBlur stdDeviation="1" result="effect7_foregroundBlur_4336_10"/>
</filter>
<filter id="filter4_f_4336_10" x="-77" y="56" width="1595" height="1434" filterUnits="userSpaceOnUse" color-interpolation-filters="sRGB">
<feFlood flood-opacity="0" result="BackgroundImageFix"/>
<feBlend mode="normal" in="SourceGraphic" in2="BackgroundImageFix" result="shape"/>
<feGaussianBlur stdDeviation="45" result="effect1_foregroundBlur_4336_10"/>
</filter>
<filter id="filter5_d_4336_10" x="664" y="93" width="112" height="112" filterUnits="userSpaceOnUse" color-interpolation-filters="sRGB">
<feFlood flood-opacity="0" result="BackgroundImageFix"/>
<feColorMatrix in="SourceAlpha" type="matrix" values="0 0 0 0 0 0 0 0 0 0 0 0 0 0 0 0 0 0 127 0" result="hardAlpha"/>
<feOffset/>
<feGaussianBlur stdDeviation="5"/>
<feComposite in2="hardAlpha" operator="out"/>
<feColorMatrix type="matrix" values="0 0 0 0 0.180392 0 0 0 0 0.858824 0 0 0 0 0.65098 0 0 0 1 0"/>
<feBlend mode="normal" in2="BackgroundImageFix" result="effect1_dropShadow_4336_10"/>
<feBlend mode="normal" in="SourceGraphic" in2="effect1_dropShadow_4336_10" result="shape"/>
</filter>
<linearGradient id="paint0_linear_4336_10" x1="145" y1="349.5" x2="145" y2="499.5" gradientUnits="userSpaceOnUse">
<stop stop-color="#2EDBA6"/>
<stop offset="1" stop-color="#03714F"/>
</linearGradient>
<linearGradient id="paint1_linear_4336_10" x1="1298" y1="349.5" x2="1298" y2="499.5" gradientUnits="userSpaceOnUse">
<stop stop-color="#2EDBA6"/>
<stop offset="1" stop-color="#03714F"/>
</linearGradient>
<linearGradient id="paint2_linear_4336_10" x1="720" y1="80.5" x2="720" y2="230.5" gradientUnits="userSpaceOnUse">
<stop stop-color="#2EDBA6"/>
<stop offset="1" stop-color="#03714F"/>
</linearGradient>
</defs>
</svg>
